<?xml version="1.0" standalone="no"?><!DOCTYPE svg PUBLIC "-//W3C//DTD SVG 1.1//EN" "http://www.w3.org/Graphics/SVG/1.1/DTD/svg11.dtd"><svg t="1557884709638" class="icon" style="" viewBox="0 0 1024 1024" version="1.1" xmlns="http://www.w3.org/2000/svg" p-id="1984" xmlns:xlink="http://www.w3.org/1999/xlink" width="200" height="200"><defs><style type="text/css"></style></defs><path d="M415.2 64h-319c-17.9 0-32.5 14.5-32.5 32.5v319c0 17.9 14.5 32.5 32.5 32.5h319c17.9 0 32.5-14.5 32.5-32.5v-319c-0.1-18-14.6-32.5-32.5-32.5z m-31.6 320h-256V128h256v256zM927.2 64H608.5c-18 0-32.5 14.5-32.5 32.5v318.7c0 17.9 14.5 32.5 32.5 32.5h318.7c17.9 0 32.5-14.5 32.5-32.5V96.5c-0.1-18-14.6-32.5-32.5-32.5z m-31.6 319.6H640V128h255.6v255.6zM927.2 576.4H608.5c-17.9 0-32.5 14.5-32.5 32.5v318.7c0 17.9 14.5 32.5 32.5 32.5h318.7c17.9 0 32.5-14.5 32.5-32.5V608.8c-0.1-17.9-14.6-32.4-32.5-32.4zM895.6 896H640V640.4h255.6V896zM415.2 576h-319c-17.9 0-32.5 14.5-32.5 32.5v319c0 17.9 14.5 32.5 32.5 32.5h319c17.9 0 32.5-14.5 32.5-32.5v-319c-0.1-18-14.6-32.5-32.5-32.5z m-31.6 320h-256V640h256v256z" p-id="1985"></path></svg>